<?xml version="1.0" standalone="no"?>
<!DOCTYPE svg PUBLIC "-//W3C//DTD SVG 20010904//EN"
 "http://www.w3.org/TR/2001/REC-SVG-20010904/DTD/svg10.dtd">
<svg version="1.0" xmlns="http://www.w3.org/2000/svg"
 width="1280.000000pt" height="790.000000pt" viewBox="0 0 1280.000000 790.000000"
 preserveAspectRatio="xMidYMid meet">
<g transform="translate(0.000000,790.000000) scale(0.100000,-0.100000)"
fill="#000000" stroke="none">
<path d="M7120 7284 c-429 -28 -655 -49 -935 -89 -278 -39 -628 -113 -725
-153 -40 -17 -23 -14 141 24 430 99 833 157 1276 184 95 5 394 11 665 12 278
1 456 4 408 8 -100 9 -750 20 -830 14z"/>
<path d="M8895 7154 c6 -2 111 -33 235 -68 374 -107 708 -226 718 -255 4 -11
-14 -13 -99 -7 -236 14 -818 19 -961 7 -313 -26 -514 -70 -673 -148 -88 -43
-108 -61 -35 -33 183 73 341 97 835 127 344 21 573 23 630 5 62 -20 115 -44
115 -52 0 -4 -23 -10 -51 -14 -65 -9 -99 -43 -130 -127 -28 -77 -42 -89 -66
-53 -11 17 -48 42 -103 67 -46 21 -98 48 -114 60 -29 20 -31 20 -380 8 -459
-16 -537 -27 -705 -108 -210 -101 -329 -288 -390 -618 -12 -60 -34 -214 -51
-342 -33 -252 -59 -399 -90 -507 -11 -38 -18 -71 -16 -73 9 -10 380 17 1006
72 862 76 1072 88 1480 89 308 1 375 -4 337 -25 -57 -33 -2203 -240 -2727
-264 -74 -4 -169 -12 -210 -20 -41 -8 -106 -17 -145 -20 -227 -20 -663 -97
-885 -156 -219 -58 -567 -174 -594 -199 -4 -5 18 -11 50 -14 298 -32 379 -45
561 -91 250 -64 434 -151 554 -262 69 -65 116 -130 102 -144 -6 -6 -47 -3
-104 7 -170 29 -348 9 -487 -57 -156 -74 -281 -197 -529 -520 -173 -225 -260
-320 -363 -398 -94 -70 -202 -125 -230 -116 -10 3 -31 20 -45 36 -32 39 -33
101 -3 219 12 48 21 120 22 165 1 68 -3 86 -22 118 -33 52 -65 50 -122 -8 -60
-61 -102 -58 -78 5 11 28 -10 220 -23 220 -13 0 -29 -36 -29 -65 0 -37 -17
-65 -40 -65 -11 0 -20 4 -20 9 0 4 -12 8 -27 8 -16 0 -38 4 -49 8 -17 5 -34
-5 -84 -49 -73 -65 -110 -74 -132 -29 -8 17 -41 43 -87 69 -86 48 -101 65
-101 111 0 47 20 51 96 19 67 -27 118 -33 129 -16 11 18 -15 39 -77 61 -60 22
-91 50 -81 75 10 26 -23 14 -54 -18 -17 -18 -43 -54 -58 -81 -52 -90 -94 -82
-71 13 28 123 80 185 276 331 232 173 460 306 750 437 504 228 1099 397 1655
472 88 12 171 24 184 26 l24 5 -22 22 c-19 20 -34 22 -134 26 -156 4 -401 -30
-737 -105 -595 -133 -954 -255 -1349 -461 -399 -207 -699 -422 -966 -692 -267
-271 -360 -341 -567 -430 -330 -142 -516 -142 -589 0 -23 45 -39 163 -39 286
0 45 -5 94 -11 110 -10 27 -11 27 -25 8 -8 -11 -28 -65 -45 -120 -50 -167 -98
-275 -121 -275 -6 0 -8 11 -3 28 3 15 9 57 12 94 5 59 2 72 -21 114 -29 51
-27 64 10 64 24 0 64 31 64 50 0 13 -17 13 -25 0 -9 -15 -41 -12 -55 5 -10 12
-7 20 14 46 38 45 72 115 90 186 27 102 21 115 -20 47 -19 -32 -46 -70 -59
-83 -23 -23 -24 -24 -105 -10 -136 22 -249 -8 -332 -88 -34 -33 -39 -35 -69
-24 -58 20 -114 14 -150 -16 l-32 -28 6 105 c16 244 95 474 234 684 88 133
343 392 343 348 0 -4 -45 -62 -101 -128 -169 -199 -259 -348 -294 -484 -31
-121 -17 -113 104 61 316 454 499 602 971 789 218 85 377 134 528 161 131 23
183 43 87 33 -591 -60 -1156 -243 -1444 -466 -52 -41 -85 -77 -222 -241 -54
-64 -97 -83 -223 -102 -533 -79 -890 -350 -1141 -866 -97 -201 -209 -565 -241
-783 -7 -50 -22 -70 -78 -109 -36 -25 -56 -78 -63 -168 l-6 -77 64 -30 c80
-37 177 -61 283 -70 l81 -7 18 -57 c19 -60 45 -81 72 -58 11 9 11 17 3 35 -15
34 -4 55 31 55 20 0 36 -8 50 -26 26 -32 56 -123 45 -134 -5 -5 -27 -10 -49
-12 l-40 -3 3 -55 c6 -134 59 -326 127 -460 73 -143 197 -290 343 -404 34 -27
62 -55 62 -62 0 -15 -23 -23 -230 -74 -157 -38 -290 -88 -290 -108 0 -36 248
-164 426 -220 346 -110 666 -154 1506 -207 219 -14 509 -34 645 -45 607 -49
685 -52 1063 -47 497 7 875 40 1310 112 307 52 491 99 880 229 324 108 499
157 890 250 1107 264 1331 321 2245 566 615 165 631 169 970 225 313 53 413
78 530 135 75 37 205 131 205 149 0 11 -36 20 -85 22 -99 3 -118 24 -86 99 35
82 18 83 -22 0 -49 -101 -86 -143 -161 -180 -121 -60 -230 -51 -316 27 -79 71
-132 184 -167 360 -24 123 -24 454 1 611 74 472 261 782 474 782 76 0 126 -17
176 -62 112 -98 177 -276 194 -533 l7 -110 105 3 c58 1 148 8 200 15 91 12 95
13 117 46 16 23 23 49 23 80 0 54 13 71 53 71 20 0 40 11 63 34 32 32 34 38
34 99 0 88 -17 108 -123 142 -45 15 -88 33 -96 40 -7 7 -30 80 -51 161 -49
190 -77 270 -151 421 -136 278 -321 470 -576 596 -48 25 -111 52 -140 61 -28
10 -56 23 -62 30 -5 6 -42 111 -80 231 -201 633 -328 906 -537 1156 -123 148
-336 320 -503 408 -173 90 -651 260 -961 340 -135 36 -200 49 -165 35z m725
-522 c0 -11 -14 -25 -35 -35 -24 -11 -35 -24 -35 -38 0 -33 -34 -20 -38 15 -5
39 31 76 75 76 25 0 33 -4 33 -18z m110 -2 c0 -11 -48 -25 -56 -17 -4 3 -3 10
1 16 8 14 55 14 55 1z m100 -111 c330 -84 683 -429 864 -845 60 -138 80 -204
68 -216 -5 -5 -43 -18 -83 -29 -387 -102 -812 -119 -969 -39 -75 38 -54 43
178 35 291 -10 481 11 705 76 80 24 80 10 1 177 -162 343 -385 593 -654 731
-95 49 -218 93 -297 106 -43 7 -55 18 -30 29 20 8 136 -5 217 -25z m-589 -81
c20 -37 22 -155 5 -283 -9 -65 -16 -146 -16 -178 l0 -59 -317 5 c-341 5 -393
11 -491 61 -83 42 -122 105 -122 193 1 90 49 159 145 206 115 57 240 75 542
76 241 1 242 1 254 -21z m128 -15 c28 -56 75 -212 105 -344 39 -173 132 -747
123 -756 -3 -3 -48 -10 -99 -15 -51 -5 -205 -27 -343 -49 -614 -98 -808 -120
-1045 -120 -232 -1 -335 22 -396 88 -23 25 -33 63 -16 63 4 -1 34 -7 67 -16
138 -34 397 -28 787 16 194 23 931 120 935 124 2 1 -2 18 -8 37 -32 109 -58
275 -94 593 -14 121 -32 263 -40 313 -18 110 -17 103 -5 103 5 0 18 -17 29
-37z m413 -34 c213 -56 343 -124 465 -246 93 -92 103 -119 58 -167 -54 -58
-73 -61 -375 -58 -197 2 -278 6 -286 15 -6 7 -26 93 -44 192 -18 99 -39 200
-46 225 -25 81 -23 83 51 75 36 -3 115 -20 177 -36z m-697 -514 c40 -16 65
-42 65 -66 0 -16 -7 -19 -55 -19 -49 0 -304 31 -377 46 -67 13 -10 37 127 53
91 10 196 4 240 -14z m739 9 c20 -8 20 -18 0 -71 -17 -44 -38 -55 -62 -31 -13
13 -16 57 -4 74 5 8 40 32 49 34 1 0 8 -3 17 -6z m1357 -945 c191 -72 239
-103 239 -155 0 -10 -55 -72 -122 -139 -68 -67 -149 -158 -181 -203 -258 -361
-386 -838 -426 -1591 -10 -178 -17 -205 -49 -185 -13 9 -16 22 -14 53 4 40 3
41 -26 41 -17 0 -104 -11 -194 -25 -823 -129 -1507 -264 -2228 -441 -167 -41
-310 -72 -317 -70 -7 3 -13 12 -13 20 0 9 -13 30 -29 48 -57 67 -70 130 -28
148 12 5 119 23 237 40 435 63 998 153 1445 231 446 78 940 170 963 179 26 11
27 25 6 129 -15 77 -15 82 5 143 42 127 72 272 131 624 34 197 74 418 89 489
52 233 122 414 214 550 43 63 139 165 155 165 6 0 70 -23 143 -51z m-1511 -94
c18 -22 5 -60 -26 -74 -27 -12 -73 -17 -241 -26 -96 -5 -103 -4 -113 15 -30
55 16 80 165 90 183 12 202 11 215 -5z m60 -178 c46 -103 106 -423 118 -622
15 -256 -44 -1110 -80 -1153 -33 -39 -35 63 -12 483 29 509 24 632 -46 1082
-17 106 -30 206 -30 223 0 45 28 38 50 -13z m-7620 -214 c0 -37 -26 -122 -86
-273 -86 -222 -109 -317 -118 -478 -2 -46 -7 -56 -35 -80 -18 -15 -45 -52 -59
-82 -15 -30 -39 -63 -54 -74 -24 -17 -29 -17 -44 -5 -15 12 -16 32 -11 186 3
95 3 173 -1 173 -4 0 -20 -26 -37 -58 -32 -61 -62 -79 -72 -43 -7 27 -23 27
-23 0 0 -18 -4 -20 -27 -15 -47 12 -60 9 -108 -28 -32 -25 -57 -36 -81 -36
-39 0 -43 14 -13 46 l22 23 -29 7 c-93 21 -89 18 -86 57 3 35 1 37 -58 67 -66
34 -70 42 -41 105 22 48 67 89 117 105 82 28 202 -11 258 -82 15 -20 26 -27
26 -18 0 27 -38 79 -70 95 -26 13 -29 19 -19 31 28 34 106 11 163 -49 l39 -42
-19 35 c-11 19 -42 48 -69 65 -41 25 -59 30 -112 30 -50 0 -63 3 -61 15 5 24
111 103 207 153 99 53 482 208 494 200 4 -2 7 -16 7 -30z m-633 -936 c16 -16
16 -18 -2 -35 -11 -10 -53 -31 -92 -46 -55 -21 -82 -38 -108 -69 l-35 -41 -80
0 c-90 -1 -90 -1 -90 72 0 58 6 67 55 88 117 49 317 67 352 31z m3364 -167
c22 -12 49 -60 49 -88 0 -34 -25 -46 -54 -27 -35 23 -61 15 -151 -50 -42 -30
-95 -60 -117 -67 -39 -11 -42 -11 -64 16 -16 18 -24 40 -24 65 0 44 14 61 51
61 15 0 71 23 125 50 99 50 146 60 185 40z m-2271 -71 c0 -21 -86 -139 -101
-139 -8 0 -29 33 -29 45 0 13 103 115 116 115 8 0 14 -9 14 -21z m-1260 -69
c0 -5 -17 -20 -37 -33 -97 -60 -221 -82 -282 -50 -38 20 -79 69 -67 80 4 4 27
-4 52 -17 59 -33 142 -32 239 3 78 29 95 31 95 17z m5415 -41 c122 -37 141
-64 86 -120 -35 -35 -69 -37 -156 -10 -111 35 -219 3 -326 -96 -220 -205 -349
-628 -318 -1048 29 -404 164 -685 352 -736 140 -38 323 56 436 223 194 288
298 831 226 1183 -9 45 -37 116 -80 200 -67 135 -86 200 -78 266 10 75 33 71
93 -16 217 -316 282 -891 154 -1378 -109 -414 -346 -690 -604 -705 -192 -10
-393 96 -512 271 -145 214 -217 544 -189 873 52 603 311 1038 666 1114 58 13
171 4 250 -21z m-2347 -55 c7 -14 20 -24 31 -24 27 0 47 -36 30 -56 -33 -40
-109 8 -109 69 0 18 3 36 6 40 11 10 31 -3 42 -29z m544 -19 c22 -48 -23 -91
-136 -134 -69 -26 -176 -40 -176 -23 0 7 48 36 108 66 59 30 120 68 136 85 36
38 53 39 68 6z m-2489 -152 c24 -57 28 -99 12 -113 -11 -9 -18 -7 -34 9 -17
17 -21 34 -21 81 0 71 18 81 43 23z m-1225 15 c7 -7 12 -22 12 -35 0 -22 -3
-23 -81 -23 -71 0 -80 2 -77 18 7 37 118 68 146 40z m2342 -159 c64 -14 69
-39 10 -63 -47 -19 -53 -19 -102 -5 -44 12 -51 39 -16 63 27 19 41 20 108 5z
m2860 -63 c0 -7 -34 -41 -74 -74 -41 -34 -85 -75 -97 -92 -27 -35 -35 -37 -49
-10 -26 48 33 130 120 169 52 24 100 27 100 7z m79 -68 c18 -17 43 -50 56 -72
38 -65 88 -197 78 -207 -5 -5 -34 7 -67 27 -72 45 -133 64 -208 64 -67 0 -76
10 -58 64 12 36 130 156 153 156 7 0 28 -14 46 -32z m-5798 -47 c24 -20 24
-20 4 -40 -20 -19 -35 -24 -67 -22 -23 1 -50 44 -42 65 9 23 75 21 105 -3z
m939 -16 c183 -18 653 -56 1190 -95 228 -16 443 -33 478 -36 68 -7 80 -22 35
-44 -50 -23 -142 -23 -283 -2 -74 12 -263 30 -420 42 -404 29 -755 58 -900 74
-69 8 -159 12 -200 9 -84 -5 -123 9 -128 45 -3 20 1 22 40 22 24 0 108 -7 188
-15z m3638 -153 c7 -22 -212 -66 -406 -82 -179 -14 -1159 -10 -1205 5 -17 5
-38 22 -46 36 -32 57 -76 54 825 53 559 -2 829 -5 832 -12z m-3403 -187 c94
-8 260 -24 370 -35 488 -48 787 -70 960 -70 130 0 158 -7 135 -35 -26 -31 -74
-48 -140 -49 -90 -1 -434 21 -685 44 -263 25 -1235 139 -1248 147 -5 3 -3 10
4 15 18 12 383 2 604 -17z m3435 -73 c0 -31 -38 -80 -82 -106 -130 -76 -377
-83 -978 -30 -96 9 -265 21 -375 28 -186 11 -198 13 -170 27 25 12 116 14 530
14 513 0 553 2 682 42 44 14 64 15 135 5 46 -7 106 -12 135 -12 44 0 55 4 79
29 29 31 44 32 44 3z m-3505 -27 c116 -8 309 -24 430 -36 121 -11 309 -28 417
-38 109 -9 200 -20 204 -24 16 -16 33 -150 34 -262 0 -131 -14 -243 -33 -262
-14 -13 -243 7 -707 63 -448 54 -632 82 -642 96 -9 15 -4 66 23 229 10 64 19
137 19 163 0 51 13 86 33 86 7 0 107 -7 222 -15z m1729 -25 c56 -67 38 -151
-34 -158 -48 -5 -53 7 -36 76 9 33 16 72 16 86 0 35 22 33 54 -4z m3081 -181
c22 -6 55 -22 74 -37 29 -21 37 -23 54 -13 80 51 12 -164 -86 -268 -42 -44
-140 -108 -189 -123 -32 -9 -45 -9 -72 5 -113 53 -195 195 -211 364 l-8 72
129 4 c71 1 161 4 199 5 39 1 88 -3 110 -9z m-1895 -49 c52 -32 -172 -89 -535
-135 -316 -40 -421 -61 -587 -114 -163 -53 -224 -65 -373 -76 -114 -8 -165
-20 -239 -53 -57 -25 -59 -25 -72 -7 -18 24 -18 84 1 160 8 33 14 85 15 116
l0 56 233 7 c127 3 394 15 592 26 491 27 462 26 720 28 130 1 236 -2 245 -8z
m1397 -54 c16 -13 39 -48 52 -78 61 -139 93 -197 116 -212 32 -21 32 -36 1
-36 -85 0 -163 96 -215 263 -11 38 -18 73 -15 78 9 15 31 10 61 -15z"/>
<path d="M4945 6872 c-191 -80 -355 -192 -521 -357 -188 -186 -330 -391 -473
-684 -72 -147 -177 -399 -169 -406 10 -10 76 110 144 259 258 572 548 903
1021 1166 59 33 104 60 98 60 -5 -1 -50 -17 -100 -38z"/>
<path d="M5706 6760 c-164 -10 -428 -39 -436 -47 -3 -3 18 -3 45 0 196 24 382
32 720 32 407 0 370 3 969 -71 231 -28 291 -30 156 -4 -382 72 -1052 114
-1454 90z"/>
<path d="M5410 6620 c-204 -9 -494 -37 -529 -51 -46 -19 -6 -27 94 -18 55 5
206 11 336 15 l237 7 13 -24 c10 -17 14 -59 13 -139 0 -98 -7 -141 -42 -290
-55 -237 -72 -331 -72 -404 l0 -61 46 -11 c57 -13 58 -12 79 136 14 107 26
140 46 140 12 0 11 -86 -3 -190 -14 -105 -9 -127 24 -108 13 7 57 15 98 18
l75 5 6 125 c3 69 9 139 13 156 7 30 6 30 -28 26 -31 -4 -37 0 -48 22 -12 29
-10 48 28 232 l19 92 161 -6 162 -5 27 27 c45 45 32 60 -59 66 -71 4 -81 8
-99 31 -23 32 -37 97 -26 126 15 41 180 56 321 29 94 -19 196 -53 328 -109
274 -118 369 -206 433 -402 15 -46 20 -99 24 -223 l5 -163 47 -31 c92 -62 110
-90 75 -119 -14 -11 -19 -9 -36 14 -20 28 -85 67 -112 67 -7 0 -16 -7 -19 -15
-4 -8 -28 -26 -56 -39 -62 -32 -70 -44 -34 -51 15 -3 67 -17 115 -30 48 -14
107 -25 131 -25 39 0 48 4 71 35 45 58 103 176 130 261 99 319 24 664 -165
759 -151 77 -417 105 -1006 105 l-333 0 0 -53 c0 -56 13 -82 63 -127 45 -40
31 -48 -65 -36 l-83 11 -2 95 c-4 151 5 140 -121 138 -59 0 -186 -4 -282 -8z
m290 -209 c0 -52 -39 -324 -54 -375 -7 -24 -18 -41 -26 -41 -21 0 -16 94 14
247 31 157 44 208 56 208 6 0 10 -18 10 -39z"/>
<path d="M4691 6510 c-30 -17 -75 -46 -100 -66 -60 -46 -197 -180 -223 -218
-12 -17 19 8 68 55 93 91 175 149 207 149 17 0 19 -5 13 -37 -4 -21 -15 -110
-26 -198 -23 -191 -33 -259 -60 -385 -21 -101 -26 -195 -11 -205 5 -3 13 21
16 52 4 32 22 159 41 283 30 203 50 376 57 500 2 43 3 45 46 60 24 8 46 21 49
28 6 20 -19 14 -77 -18z"/>
<path d="M5956 6213 c-4 -12 -2 -59 4 -104 5 -46 10 -111 11 -144 l1 -60 10
45 c9 47 2 228 -11 264 l-8 21 -7 -22z"/>
<path d="M4212 5943 c-71 -122 -129 -247 -157 -335 -15 -48 -25 -92 -23 -98 1
-5 47 86 100 203 94 204 132 297 123 297 -2 0 -22 -30 -43 -67z"/>
<path d="M5940 5890 c-22 -6 -23 -8 -7 -15 11 -4 23 -3 30 4 15 15 7 19 -23
11z"/>
<path d="M6488 5725 c-80 -20 -130 -48 -186 -102 -56 -55 -42 -71 18 -20 83
71 256 112 450 105 90 -3 125 -8 162 -25 40 -18 49 -19 59 -7 6 8 9 17 6 21
-33 32 -412 53 -509 28z"/>
<path d="M4765 5623 c46 -71 56 -83 70 -83 20 0 19 6 -6 46 -18 30 -68 74 -83
74 -3 0 6 -17 19 -37z"/>
<path d="M5035 5429 c-252 -14 -675 -62 -662 -76 3 -2 87 1 188 7 563 32 987
23 1619 -35 151 -14 286 -25 300 -23 29 3 -376 68 -650 104 -214 29 -537 38
-795 23z"/>
<path d="M7512 5148 c-18 -48 -43 -74 -119 -125 l-68 -45 55 6 c30 3 65 6 78
6 13 0 25 8 28 18 4 9 17 45 30 79 13 34 24 69 24 77 0 27 -15 18 -28 -16z"/>
<path d="M4120 5114 c-415 -169 -628 -311 -946 -630 -195 -196 -202 -221 -14
-48 310 284 346 314 460 388 114 74 313 180 491 262 90 42 166 78 168 80 16
15 -43 -4 -159 -52z"/>
<path d="M4849 3886 c29 -15 69 -43 89 -64 34 -35 34 -36 13 -4 -31 44 -81 81
-122 88 -30 5 -27 2 20 -20z"/>
<path d="M11305 3723 c-100 -36 -168 -107 -235 -247 -81 -169 -124 -380 -124
-616 0 -303 57 -499 171 -586 85 -65 165 -54 252 34 154 155 261 528 261 907
0 213 -29 346 -95 437 -58 79 -138 104 -230 71z m33 -412 c61 -31 97 -86 69
-109 -9 -8 -25 -4 -62 16 -53 29 -82 68 -72 95 8 22 19 21 65 -2z m192 -251
c13 -24 17 -111 6 -128 -22 -36 -56 15 -56 84 0 62 27 86 50 44z m-521 -167
c6 -21 17 -82 26 -136 17 -108 35 -160 67 -194 19 -20 19 -23 4 -29 -72 -27
-135 81 -143 246 -5 93 5 150 26 150 6 0 15 -17 20 -37z m281 -34 c80 -6 153
-15 163 -21 11 -6 17 -21 17 -46 0 -70 -102 -187 -212 -243 -38 -19 -39 -19
-82 -1 -78 35 -116 118 -116 255 l0 80 43 -6 c23 -4 107 -12 187 -18z"/>
<path d="M5001 3664 c0 -11 3 -14 6 -6 3 7 2 16 -1 19 -3 4 -6 -2 -5 -13z"/>
<path d="M5011 3584 c0 -11 3 -14 6 -6 3 7 2 16 -1 19 -3 4 -6 -2 -5 -13z"/>
<path d="M11608 2464 c-3 -12 0 -34 8 -50 l12 -29 0 30 c1 17 -3 39 -7 49 -7
19 -8 19 -13 0z"/>
</g>
</svg>
